<svg width="33" height="32" viewBox="0 0 33 32" fill="none" xmlns="http://www.w3.org/2000/svg">
<path fill-rule="evenodd" clip-rule="evenodd" d="M1.48372 4.12122C2.01092 3.2483 4.91567 0.0732666 6.98853 0.169117C7.60816 0.220465 8.15591 0.595307 8.60095 1.03006C9.62283 2.02792 12.5481 5.80202 12.7141 6.5962C13.1181 8.54401 10.797 9.66683 11.5074 11.63C13.3184 16.0614 16.4388 19.1817 20.8721 20.9908C22.8337 21.7011 23.9566 19.3802 25.9045 19.7858C26.697 19.9519 30.473 22.877 31.4709 23.8988C31.9039 24.3421 32.2805 24.8916 32.3319 25.5112C32.4089 27.6935 29.0369 30.6391 28.3796 31.0157C26.8288 32.1248 24.8056 32.106 22.339 30.9592C15.4563 28.0957 4.45694 17.304 1.54021 10.1615C0.424185 7.70875 0.347158 5.67193 1.48372 4.12122Z" fill="#10B981"/>
</svg>
