<svg width="12" height="12" viewBox="0 0 12 12" fill="none" xmlns="http://www.w3.org/2000/svg">
<path fill-rule="evenodd" clip-rule="evenodd" d="M0.974731 2.11529C1.1571 1.81333 2.16191 0.71503 2.87895 0.748187C3.09329 0.765949 3.28277 0.895614 3.43672 1.046C3.7902 1.39118 4.80212 2.69671 4.85955 2.97144C4.99929 3.64522 4.19639 4.03363 4.44211 4.71274C5.06856 6.24563 6.14798 7.32499 7.68154 7.95081C8.36009 8.19652 8.74851 7.39367 9.42233 7.53399C9.69648 7.59142 11.0027 8.60328 11.3479 8.95675C11.4977 9.1101 11.6279 9.30016 11.6457 9.51449C11.6723 10.2694 10.5059 11.2884 10.2785 11.4186C9.74207 11.8023 9.0422 11.7958 8.18897 11.3991C5.80811 10.4085 2.00322 6.67548 0.994271 4.20474C0.608217 3.35629 0.581572 2.65172 0.974731 2.11529Z" fill="#ECF1F1"/>
</svg>
