<svg width="180" height="27" viewBox="0 0 180 27" fill="none" xmlns="http://www.w3.org/2000/svg">
<path d="M14.2105 0L19.0409 8.23567L28.4211 10.2528L22.0263 17.3598L22.9931 26.8421L14.2105 22.9988L5.42794 26.8421L6.39474 17.3598L0 10.2528L9.3801 8.23567L14.2105 0Z" fill="#DFB300"/>
<path d="M52.1051 0L56.9355 8.23567L66.3156 10.2528L59.9208 17.3598L60.8876 26.8421L52.1051 22.9988L43.3225 26.8421L44.2893 17.3598L37.8945 10.2528L47.2746 8.23567L52.1051 0Z" fill="#DFB300"/>
<path d="M90.0001 0L94.8305 8.23567L104.211 10.2528L97.8159 17.3598L98.7827 26.8421L90.0001 22.9988L81.2175 26.8421L82.1843 17.3598L75.7896 10.2528L85.1697 8.23567L90.0001 0Z" fill="#DFB300"/>
<path d="M127.895 0L132.725 8.23567L142.105 10.2528L135.71 17.3598L136.677 26.8421L127.895 22.9988L119.112 26.8421L120.079 17.3598L113.684 10.2528L123.064 8.23567L127.895 0Z" fill="#DFB300"/>
<path d="M165.79 0L170.62 8.23567L180 10.2528L173.605 17.3598L174.572 26.8421L165.79 22.9988L157.007 26.8421L157.974 17.3598L151.579 10.2528L160.959 8.23567L165.79 0Z" fill="#626262"/>
<path d="M157.007 26.8421L165.79 22.9988V0L160.959 8.23567L151.579 10.2528L157.974 17.3598L157.007 26.8421Z" fill="#DFB300"/>
</svg>
